<?xml version="1.0" encoding="UTF-8"?>
<svg version="1.1" xmlns="http://www.w3.org/2000/svg" width="104" height="157">
<path d="M0 0 C34.32 0 68.64 0 104 0 C104 51.81 104 103.62 104 157 C69.68 157 35.36 157 0 157 C0 105.19 0 53.38 0 0 Z " fill="#FCFDFD" transform="translate(0,0)"/>
<path d="M0 0 C1.10923828 0.45181641 2.21847656 0.90363281 3.36132812 1.36914062 C4.41384766 1.81064453 5.46636719 2.25214844 6.55078125 2.70703125 C7.99384644 3.31188354 7.99384644 3.31188354 9.46606445 3.92895508 C11.6875 5.1875 11.6875 5.1875 12.6875 8.1875 C12.0275 8.1875 11.3675 8.1875 10.6875 8.1875 C10.79578125 9.30898438 10.79578125 9.30898438 10.90625 10.453125 C10.9990625 11.43796875 11.091875 12.4228125 11.1875 13.4375 C11.2803125 14.41203125 11.373125 15.3865625 11.46875 16.390625 C11.64550168 18.65052153 11.6875 20.92070193 11.6875 23.1875 C10.6975 23.5175 9.7075 23.8475 8.6875 24.1875 C9.18378906 24.83589844 9.68007812 25.48429687 10.19140625 26.15234375 C12.19199697 30.21098341 11.95943507 33.31316142 11.625 37.75 C11.53992188 38.94882813 11.53992188 38.94882813 11.453125 40.171875 C10.38885284 52.64193186 6.72421318 60.4299131 -2.3125 69.1875 C-2.9725 69.8475 -3.6325 70.5075 -4.3125 71.1875 C-14.07024735 72.26547209 -22.48274743 71.06473922 -30.5625 65.4375 C-37.13231457 60.13715159 -40.53862434 54.25268728 -41.61132812 45.84545898 C-41.83796125 43.2725212 -41.99286804 40.70444568 -42.125 38.125 C-42.18880859 37.25294922 -42.25261719 36.38089844 -42.31835938 35.48242188 C-42.60239475 30.19776377 -42.24565663 26.8032426 -39.3125 22.1875 C-39.6425 21.8575 -39.9725 21.5275 -40.3125 21.1875 C-40.35313832 19.52132885 -40.355221 17.85361905 -40.3125 16.1875 C-38.0025 16.5175 -35.6925 16.8475 -33.3125 17.1875 C-33.1011547 14.7962705 -33.1011547 14.7962705 -34.3125 12.1875 C-37.17924844 10.49449573 -40.18663371 9.31786377 -43.3125 8.1875 C-42.3125 5.1875 -42.3125 5.1875 -40.09106445 3.92895508 C-39.129021 3.52572021 -38.16697754 3.12248535 -37.17578125 2.70703125 C-36.12326172 2.26552734 -35.07074219 1.82402344 -33.98632812 1.36914062 C-32.3224707 0.69141602 -32.3224707 0.69141602 -30.625 0 C-29.53509766 -0.46341797 -28.44519531 -0.92683594 -27.32226562 -1.40429688 C-16.33241041 -5.94605688 -10.75462406 -4.5727822 0 0 Z " fill="#0C2648" transform="translate(67.3125,28.8125)"/>
<path d="M0 0 C1.10923828 0.45181641 2.21847656 0.90363281 3.36132812 1.36914062 C4.41384766 1.81064453 5.46636719 2.25214844 6.55078125 2.70703125 C7.99384644 3.31188354 7.99384644 3.31188354 9.46606445 3.92895508 C11.6875 5.1875 11.6875 5.1875 12.6875 8.1875 C12.0275 8.1875 11.3675 8.1875 10.6875 8.1875 C10.79578125 9.30898438 10.79578125 9.30898438 10.90625 10.453125 C10.9990625 11.43796875 11.091875 12.4228125 11.1875 13.4375 C11.2803125 14.41203125 11.373125 15.3865625 11.46875 16.390625 C11.64550168 18.65052153 11.6875 20.92070193 11.6875 23.1875 C10.6975 23.5175 9.7075 23.8475 8.6875 24.1875 C9.18378906 24.83589844 9.68007812 25.48429687 10.19140625 26.15234375 C12.19199697 30.21098341 11.95943507 33.31316142 11.625 37.75 C11.53992188 38.94882813 11.53992188 38.94882813 11.453125 40.171875 C10.38885284 52.64193186 6.72421318 60.4299131 -2.3125 69.1875 C-2.9725 69.8475 -3.6325 70.5075 -4.3125 71.1875 C-14.07024735 72.26547209 -22.48274743 71.06473922 -30.5625 65.4375 C-35.07358354 61.80882402 -38.56437381 57.89226393 -40.125 52.25 C-40.186875 51.569375 -40.24875 50.88875 -40.3125 50.1875 C-39.6525 50.1875 -38.9925 50.1875 -38.3125 50.1875 C-37.9825 48.8675 -37.6525 47.5475 -37.3125 46.1875 C-37.16554688 46.75597656 -37.01859375 47.32445312 -36.8671875 47.91015625 C-34.93333809 54.56748843 -32.26227887 59.59373304 -26.35546875 63.47265625 C-22.42064273 65.5717317 -18.78949527 66.81441706 -14.3125 67.1875 C-13.66152344 67.25066406 -13.01054688 67.31382813 -12.33984375 67.37890625 C-8.99751206 67.57257407 -6.66519222 67.37224355 -3.6875 65.8125 C1.5043326 60.07415871 5.34667457 54.02648494 5.6875 46.1875 C4.945 46.435 4.945 46.435 4.1875 46.6875 C-0.70589641 47.66617928 -5.03391938 48.03988708 -9.3125 45.1875 C-7.6625 45.1875 -6.0125 45.1875 -4.3125 45.1875 C-4.3125 44.5275 -4.3125 43.8675 -4.3125 43.1875 C-3.68601563 43.10113281 -3.05953125 43.01476562 -2.4140625 42.92578125 C2.65175416 42.23900883 2.65175416 42.23900883 6.25 39 C6.9934014 34.22099098 7.40762971 30.72595892 5.3125 26.25 C1.83532426 23.51793335 -0.6325671 23.48838531 -4.96875 23.6796875 C-7.6057706 24.02965428 -7.6057706 24.02965428 -9.8125 26.6875 C-10.3075 27.5125 -10.8025 28.3375 -11.3125 29.1875 C-11.9725 29.1875 -12.6325 29.1875 -13.3125 29.1875 C-13.3125 31.4975 -13.3125 33.8075 -13.3125 36.1875 C-14.6325 36.1875 -15.9525 36.1875 -17.3125 36.1875 C-17.55033203 35.28257813 -17.55033203 35.28257813 -17.79296875 34.359375 C-18.8988602 30.57123853 -19.81846393 27.75418843 -22.4375 24.75 C-25.744293 22.95282989 -28.72839724 22.27896038 -32.421875 21.6796875 C-33.35773437 21.43605469 -33.35773437 21.43605469 -34.3125 21.1875 C-34.6425 20.5275 -34.9725 19.8675 -35.3125 19.1875 C-29.73493217 17.61433984 -25.3897914 18.65367146 -20.3125 21.1875 C-17.75 23.75 -17.75 23.75 -16.3125 26.1875 C-16.3125 26.8475 -16.3125 27.5075 -16.3125 28.1875 C-15.6525 28.1875 -14.9925 28.1875 -14.3125 28.1875 C-14.044375 27.424375 -13.77625 26.66125 -13.5 25.875 C-12.25999376 23.06867008 -11.7247347 22.01612953 -9.3125 20.1875 C-6.5673959 19.34220018 -3.91751536 18.62679166 -1.125 18 C-0.00061523 17.73413086 -0.00061523 17.73413086 1.14648438 17.46289062 C2.99124819 17.02813737 4.83910066 16.60652724 6.6875 16.1875 C7.0175 14.2075 7.3475 12.2275 7.6875 10.1875 C5.17784386 10.89089566 5.17784386 10.89089566 2.6875 12.1875 C1.99214127 14.21778196 1.99214127 14.21778196 1.6875 16.1875 C0.95144531 16.21328125 0.21539062 16.2390625 -0.54296875 16.265625 C-8.23191156 16.67810043 -8.23191156 16.67810043 -14.3125 21.1875 C-18.3125 19.1875 -18.3125 19.1875 -20.125 18.15625 C-22.66643517 17.03075728 -24.79806409 16.78074494 -27.5625 16.5625 C-28.45453125 16.48773438 -29.3465625 16.41296875 -30.265625 16.3359375 C-31.27882813 16.26246094 -31.27882813 16.26246094 -32.3125 16.1875 C-32.3125 14.8675 -32.3125 13.5475 -32.3125 12.1875 C-35.6125 11.1975 -38.9125 10.2075 -42.3125 9.1875 C-42.3125 7.8675 -42.3125 6.5475 -42.3125 5.1875 C-38.44492365 3.50321843 -34.56736047 1.84326514 -30.6875 0.1875 C-29.59308594 -0.28945313 -28.49867187 -0.76640625 -27.37109375 -1.2578125 C-26.30761719 -1.70898438 -25.24414062 -2.16015625 -24.1484375 -2.625 C-23.17438965 -3.04394531 -22.2003418 -3.46289062 -21.19677734 -3.89453125 C-13.2974427 -6.40862455 -7.2348089 -3.07618427 0 0 Z " fill="#05274B" transform="translate(67.3125,28.8125)"/>
<path d="M0 0 C0.928125 0.495 1.85625 0.99 2.8125 1.5 C7.08753745 3.39710251 10.95599704 3.08031867 15.546875 2.71484375 C18 3 18 3 19.828125 5.00390625 C20.40820312 5.99197266 20.40820312 5.99197266 21 7 C23.43717258 6.72965366 23.43717258 6.72965366 26 6 C26.66 5.01 27.32 4.02 28 3 C30.64453125 2.7421875 30.64453125 2.7421875 33.8125 2.875 C37.74635761 3.02160339 41.16405281 2.9217618 45 2 C44.69024598 10.36335867 41.1669009 17.28173693 35.125 23.125 C30.07385157 26.15568906 25.51937128 25.41637426 20 24.3125 C12.81924744 22.29511765 7.16378521 18.18619517 3 12 C1.30227278 8.0089719 0 4.35795301 0 0 Z " fill="#635FB8" transform="translate(29,72)"/>
<path d="M0 0 C2.31 0.99 4.62 1.98 7 3 C7 3.66 7 4.32 7 5 C6.34 5 5.68 5 5 5 C5.10828125 6.12148438 5.10828125 6.12148438 5.21875 7.265625 C5.3115625 8.25046875 5.404375 9.2353125 5.5 10.25 C5.5928125 11.22453125 5.685625 12.1990625 5.78125 13.203125 C5.95800168 15.46302153 6 17.73320193 6 20 C5.01 20.33 4.02 20.66 3 21 C3.49628906 21.64839844 3.99257812 22.29679687 4.50390625 22.96484375 C6.50449697 27.02348341 6.27193507 30.12566142 5.9375 34.5625 C5.85242188 35.76132813 5.85242188 35.76132813 5.765625 36.984375 C4.70135284 49.45443186 1.03671318 57.2424131 -8 66 C-8.66 66.66 -9.32 67.32 -10 68 C-19.75774735 69.07797209 -28.17024743 67.87723922 -36.25 62.25 C-40.76108354 58.62132402 -44.25187381 54.70476393 -45.8125 49.0625 C-45.874375 48.381875 -45.93625 47.70125 -46 47 C-45.34 47 -44.68 47 -44 47 C-43.67 45.68 -43.34 44.36 -43 43 C-42.85304688 43.56847656 -42.70609375 44.13695312 -42.5546875 44.72265625 C-40.62083809 51.37998843 -37.94977887 56.40623304 -32.04296875 60.28515625 C-28.10814273 62.3842317 -24.47699527 63.62691706 -20 64 C-19.34902344 64.06316406 -18.69804688 64.12632813 -18.02734375 64.19140625 C-14.68501206 64.38507407 -12.35269222 64.18474355 -9.375 62.625 C-4.1831674 56.88665871 -0.34082543 50.83898494 0 43 C-0.7425 43.2475 -0.7425 43.2475 -1.5 43.5 C-6.39339641 44.47867928 -10.72141938 44.85238708 -15 42 C-13.35 42 -11.7 42 -10 42 C-10 41.34 -10 40.68 -10 40 C-9.37351563 39.91363281 -8.74703125 39.82726562 -8.1015625 39.73828125 C-3.03574584 39.05150883 -3.03574584 39.05150883 0.5625 35.8125 C1.3059014 31.03349098 1.72012971 27.53845892 -0.375 23.0625 C-3.85217574 20.33043335 -6.3200671 20.30088531 -10.65625 20.4921875 C-13.2932706 20.84215428 -13.2932706 20.84215428 -15.5 23.5 C-15.995 24.325 -16.49 25.15 -17 26 C-17.66 26 -18.32 26 -19 26 C-19 28.31 -19 30.62 -19 33 C-20.32 33 -21.64 33 -23 33 C-23.23783203 32.09507813 -23.23783203 32.09507813 -23.48046875 31.171875 C-24.5863602 27.38373853 -25.50596393 24.56668843 -28.125 21.5625 C-31.431793 19.76532989 -34.41589724 19.09146038 -38.109375 18.4921875 C-38.73328125 18.32976563 -39.3571875 18.16734375 -40 18 C-40.33 17.34 -40.66 16.68 -41 16 C-35.42243217 14.42683984 -31.0772914 15.46617146 -26 18 C-23.4375 20.5625 -23.4375 20.5625 -22 23 C-22 23.66 -22 24.32 -22 25 C-21.34 25 -20.68 25 -20 25 C-19.731875 24.236875 -19.46375 23.47375 -19.1875 22.6875 C-17.94749376 19.88117008 -17.4122347 18.82862953 -15 17 C-12.2548959 16.15470018 -9.60501536 15.43929166 -6.8125 14.8125 C-5.68811523 14.54663086 -5.68811523 14.54663086 -4.54101562 14.27539062 C-2.69625181 13.84063737 -0.84839934 13.41902724 1 13 C1.23009766 11.58847656 1.23009766 11.58847656 1.46484375 10.1484375 C1.8782289 7.71640515 2.35964715 5.37845343 3 3 C2.01 3 1.02 3 0 3 C0 2.01 0 1.02 0 0 Z " fill="#183053" transform="translate(73,32)"/>
<path d="M0 0 C0.928125 0.495 1.85625 0.99 2.8125 1.5 C7.73968438 3.659445 12.72281389 3.25765646 18 3 C18.28875 4.093125 18.5775 5.18625 18.875 6.3125 C19.81893204 10.04013845 19.81893204 10.04013845 22 13 C22.65275743 14.16280675 23.29841315 15.32962408 23.9375 16.5 C26.14490819 20.38340331 28.26159693 22.50773129 32 25 C22.65109468 25.33388948 15.52273974 23.81155859 8 18 C3.4911463 13.59134305 1.41753254 9.05044376 0 3 C0 2.01 0 1.02 0 0 Z " fill="#306CC1" transform="translate(29,72)"/>
<path d="M0 0 C2.91269772 1.8578656 5.42832709 3.85665419 7 7 C7.54724071 12.69130337 6.59333707 15.56117185 3 20 C-0.21694364 21.60847182 -3.52137222 21.61309149 -7 21 C-11.14317839 17.6501962 -12.79944948 15.50412894 -13.5 10.25 C-13.47062512 7.56709414 -13.2391851 6.32905233 -11.6484375 4.140625 C-8.00012033 0.76552982 -5.09237884 -1.19183335 0 0 Z " fill="#EFF2F5" transform="translate(42,51)"/>
<path d="M0 0 C2.57866282 0.6298701 3.70080431 1.22910257 5.5078125 3.14453125 C7.66952993 7.10767986 8.02943979 9.1364686 7.3828125 13.58203125 C6.12825278 16.40479061 5.09896528 18.04491666 2.6328125 19.89453125 C-0.67930582 20.9065674 -3.17157976 21.00517606 -6.6171875 20.58203125 C-10.46272913 17.40527947 -12.41943489 15.29588718 -12.9921875 10.33203125 C-12.61915032 6.60165947 -11.97892589 4.45547395 -9.375 1.6953125 C-6.34537534 -0.22344978 -3.51023028 -0.22528344 0 0 Z " fill="#EFF4F6" transform="translate(67.6171875,51.41796875)"/>
<path d="M0 0 C2.5175092 3.7762638 2.73941121 6.56353277 2 11 C-0.18753283 13.6923481 -1.58423955 13.93936827 -5 14.4375 C-8 14 -8 14 -10.375 12.4375 C-12.63913895 9.04129157 -12.64269755 6.99900698 -12 3 C-8.32585541 -1.4535086 -5.40458684 -1.52960005 0 0 Z " fill="#253B55" transform="translate(60,113)"/>
<path d="M0 0 C0 1.98 0 3.96 0 6 C-4.35008328 8.50556267 -9.02032372 9.04609039 -13.90625 9.92578125 C-18.22857664 11.42658911 -19.99751839 13.99503678 -22 18 C-22.66 18 -23.32 18 -24 18 C-24.7734375 16.6078125 -24.7734375 16.6078125 -25.5625 15.1875 C-28.26360062 10.88198623 -32.272316 10.12724138 -37 9 C-38.65839874 8.62770641 -40.32201275 8.2706431 -42 8 C-41.67 6.02 -41.34 4.04 -41 2 C-40.67 3.32 -40.34 4.64 -40 6 C-39.33613281 5.96519531 -38.67226563 5.93039063 -37.98828125 5.89453125 C-32.64198681 5.73063025 -29.48801987 5.83198598 -25 9 C-21.12281539 9.41235885 -21.12281539 9.41235885 -19.109375 7.51171875 C-16.34729873 5.53223076 -14.60645622 5.69262656 -11.25 5.8125 C-9.77273437 5.85310547 -9.77273437 5.85310547 -8.265625 5.89453125 C-7.14414063 5.94673828 -7.14414063 5.94673828 -6 6 C-5.67 4.35 -5.34 2.7 -5 1 C-2 0 -2 0 0 0 Z " fill="#406FB1" transform="translate(75,39)"/>
<path d="M0 0 C1.32 0 2.64 0 4 0 C3.3237809 4.32945155 1.84067504 8.18286337 0.125 12.1875 C-0.25978516 13.13012695 -0.25978516 13.13012695 -0.65234375 14.09179688 C-2.09895503 17.49024298 -2.84742254 18.8982817 -6 21 C-7.32 21 -8.64 21 -10 21 C-10 20.01 -10 19.02 -10 18 C-8.68 17.34 -7.36 16.68 -6 16 C-6.20496094 15.41992188 -6.40992187 14.83984375 -6.62109375 14.2421875 C-8.14009813 9.8378016 -9.4047151 5.64322223 -10 1 C-8.68 1 -7.36 1 -6 1 C-5.01 3.64 -4.02 6.28 -3 9 C-2.01 6.03 -1.02 3.06 0 0 Z " fill="#1D324F" transform="translate(92,112)"/>
<path d="M0 0 C3.067387 1.87799204 4.5920624 2.87032665 5.8125 6.25 C5.874375 6.8275 5.93625 7.405 6 8 C6.66 8 7.32 8 8 8 C8.268125 7.236875 8.53625 6.47375 8.8125 5.6875 C9.94424112 3.12619116 10.91223401 1.80307062 13 0 C13.66 0.33 14.32 0.66 15 1 C13.68 3.64 12.36 6.28 11 9 C10.34 9 9.68 9 9 9 C9 11.31 9 13.62 9 16 C7.68 16 6.36 16 5 16 C4.84144531 15.39671875 4.68289062 14.7934375 4.51953125 14.171875 C3.4136398 10.38373853 2.49403607 7.56668843 -0.125 4.5625 C-3.431793 2.76532989 -6.41589724 2.09146038 -10.109375 1.4921875 C-11.04523437 1.24855469 -11.04523437 1.24855469 -12 1 C-12.33 0.34 -12.66 -0.32 -13 -1 C-8.45076079 -2.51641307 -4.52389415 -1.34923159 0 0 Z " fill="#0A2951" transform="translate(45,49)"/>
<path d="M0 0 C1.32 0.33 2.64 0.66 4 1 C4 5.62 4 10.24 4 15 C-4.3984375 15.1953125 -4.3984375 15.1953125 -7 15 C-9 13 -9 13 -9.1953125 10.1796875 C-9.17210938 9.08914062 -9.14890625 7.99859375 -9.125 6.875 C-9.10695313 5.77929688 -9.08890625 4.68359375 -9.0703125 3.5546875 C-9.04710938 2.71164063 -9.02390625 1.86859375 -9 1 C-7.68 1 -6.36 1 -5 1 C-5 4.63 -5 8.26 -5 12 C-3.68 11.67 -2.36 11.34 -1 11 C-0.67 7.37 -0.34 3.74 0 0 Z " fill="#34455B" transform="translate(32,112)"/>
<path d="M0 0 C4.95 0 9.9 0 15 0 C14.67 1.32 14.34 2.64 14 4 C12.35 4 10.7 4 9 4 C9 9.28 9 14.56 9 20 C7.68 20 6.36 20 5 20 C5 14.72 5 9.44 5 4 C3.35 4 1.7 4 0 4 C0 2.68 0 1.36 0 0 Z " fill="#283D56" transform="translate(9,107)"/>
<path d="M0 0 C0.33 0 0.66 0 1 0 C1.14695312 0.56847656 1.29390625 1.13695313 1.4453125 1.72265625 C3.3849935 8.40006383 5.65396334 13.45760889 11.84130859 17.07714844 C16.47505775 19.56951942 21.21610591 21.81258999 26 24 C26 24.33 26 24.66 26 25 C17.32353643 24.96307888 10.76837978 22.43755917 4.3671875 16.48046875 C1.38998147 13.10214215 -2 8.64670522 -2 4 C-1.34 4 -0.68 4 0 4 C0 2.68 0 1.36 0 0 Z " fill="#133259" transform="translate(29,75)"/>
<path d="M0 0 C1.32 0 2.64 0 4 0 C4 0.99 4 1.98 4 3 C5.32 3.33 6.64 3.66 8 4 C7.67 4.99 7.34 5.98 7 7 C6.01 7 5.02 7 4 7 C4 9.64 4 12.28 4 15 C5.32 15 6.64 15 8 15 C8 15.99 8 16.98 8 18 C5.125 18.1875 5.125 18.1875 2 18 C-0.13586678 14.79619983 -0.23132175 13.98060033 -0.125 10.3125 C-0.10695312 9.50425781 -0.08890625 8.69601563 -0.0703125 7.86328125 C-0.04710937 7.24839844 -0.02390625 6.63351563 0 6 C-0.66 6 -1.32 6 -2 6 C-2 5.34 -2 4.68 -2 4 C-1.34 4 -0.68 4 0 4 C0 2.68 0 1.36 0 0 Z " fill="#253852" transform="translate(39,109)"/>
<path d="M0 0 C0.33 0 0.66 0 1 0 C1.13277344 0.61488281 1.26554687 1.22976562 1.40234375 1.86328125 C1.57894531 2.67152344 1.75554688 3.47976562 1.9375 4.3125 C2.11152344 5.11300781 2.28554688 5.91351563 2.46484375 6.73828125 C2.99886159 9.145401 2.99886159 9.145401 4 12 C3.5625 14.1875 3.5625 14.1875 3 16 C2.34 16 1.68 16 1 16 C1 16.66 1 17.32 1 18 C-1.3125 17.875 -1.3125 17.875 -4 17 C-5.9375 14.3125 -5.9375 14.3125 -7 11 C-6.1875 7.625 -6.1875 7.625 -5 5 C-4.67 5.66 -4.34 6.32 -4 7 C-2.68 7 -1.36 7 0 7 C0 4.69 0 2.38 0 0 Z " fill="#282E36" transform="translate(54,58)"/>
<path d="M0 0 C5.75 0.75 5.75 0.75 8 3 C7.01 3.495 7.01 3.495 6 4 C6.99 4.99 7.98 5.98 9 7 C8.030625 7.680625 7.06125 8.36125 6.0625 9.0625 C3.2186553 11.39110695 3.01085438 11.95270592 2.125 15.8125 C2.08375 16.864375 2.0425 17.91625 2 19 C0.68 19.33 -0.64 19.66 -2 20 C-2.29341888 14.32723489 -2.00559652 11.00932754 1 6 C0.67 5.67 0.34 5.34 0 5 C-0.04063832 3.33382885 -0.042721 1.66611905 0 0 Z " fill="#192F4B" transform="translate(27,45)"/>
<path d="M0 0 C2.64 0.33 5.28 0.66 8 1 C7.01 1.33 6.02 1.66 5 2 C5.14076315 3.9587043 5.2877676 5.91696093 5.4375 7.875 C5.51871094 8.96554688 5.59992187 10.05609375 5.68359375 11.1796875 C5.83001703 13.94728971 5.83001703 13.94728971 7 16 C4.69 16 2.38 16 0 16 C0 10.72 0 5.44 0 0 Z " fill="#ECF0F5" transform="translate(18,111)"/>
<path d="M0 0 C0.4125 0.969375 0.825 1.93875 1.25 2.9375 C2.64899168 6.12260099 2.64899168 6.12260099 5.1875 6.875 C5.785625 6.91625 6.38375 6.9575 7 7 C7 6.34 7 5.68 7 5 C7.66 5 8.32 5 9 5 C9 3.68 9 2.36 9 1 C10.98 1.66 12.96 2.32 15 3 C15 3.66 15 4.32 15 5 C14.071875 5.2475 13.14375 5.495 12.1875 5.75 C8.83541675 7.06454245 7.8122197 7.97963384 6 11 C3.625 10.8125 3.625 10.8125 1 10 C-0.3125 7.4375 -0.3125 7.4375 -1 5 C-2.65 5 -4.3 5 -6 5 C-4.87312259 1.61936778 -3.78825335 0 0 0 Z " fill="#0E2745" transform="translate(48,69)"/>
<path d="M0 0 C0 1.98 0 3.96 0 6 C-3.58727128 8.08351615 -7.20694042 8.80141379 -11.25 9.625 C-12.51328125 9.88539062 -13.7765625 10.14578125 -15.078125 10.4140625 C-16.04234375 10.60742188 -17.0065625 10.80078125 -18 11 C-18 10.34 -18 9.68 -18 9 C-18.66 8.67 -19.32 8.34 -20 8 C-16.57905758 5.71937172 -15.31812778 5.78074993 -11.3125 5.875 C-9.82169922 5.90207031 -9.82169922 5.90207031 -8.30078125 5.9296875 C-7.54152344 5.95289063 -6.78226563 5.97609375 -6 6 C-5.67 4.35 -5.34 2.7 -5 1 C-2 0 -2 0 0 0 Z " fill="#3666AA" transform="translate(75,39)"/>
<path d="M0 0 C0 1.32 0 2.64 0 4 C-1.32 4.33 -2.64 4.66 -4 5 C-4.33 8.3 -4.66 11.6 -5 15 C-6.32 15 -7.64 15 -9 15 C-9 10.38 -9 5.76 -9 1 C-3 0 -3 0 0 0 Z " fill="#1D324B" transform="translate(74,112)"/>
<path d="M0 0 C4.55555556 0.55555556 4.55555556 0.55555556 6 2 C6.1875 4.9375 6.1875 4.9375 6 8 C5.34 8.66 4.68 9.32 4 10 C0.70285207 9.67028521 -0.6226839 9.3773161 -3 7 C-2.67028521 3.70285207 -2.3773161 2.3773161 0 0 Z " fill="#3C4E66" transform="translate(62,57)"/>
<path d="M0 0 C1.9375 0.75 1.9375 0.75 3.9375 2.75 C3.60778521 6.04714793 3.3148161 7.3726839 0.9375 9.75 C-3.61805556 9.19444444 -3.61805556 9.19444444 -5.0625 7.75 C-5.3125 4.8125 -5.3125 4.8125 -5.0625 1.75 C-2.0625 -0.25 -2.0625 -0.25 0 0 Z " fill="#2C4059" transform="translate(41.0625,57.25)"/>
<path d="M0 0 C0.99 0 1.98 0 3 0 C3 6.6 3 13.2 3 20 C2.01 20 1.02 20 0 20 C0 13.4 0 6.8 0 0 Z " fill="#0D233D" transform="translate(76,107)"/>
<path d="M0 0 C0.33 2.31 0.66 4.62 1 7 C0.01 7.66 -0.98 8.32 -2 9 C-5 5.25 -5 5.25 -5 3 C-7.97 2.67 -10.94 2.34 -14 2 C-8.83363353 -0.58318323 -5.62102204 -1.44540567 0 0 Z " fill="#122B49" transform="translate(76,49)"/>
<path d="M0 0 C0 2.97 0 5.94 0 9 C-0.99 9.495 -0.99 9.495 -2 10 C-2 9.34 -2 8.68 -2 8 C-3.32 8 -4.64 8 -6 8 C-6 5.36 -6 2.72 -6 0 C-3 -1 -3 -1 0 0 Z " fill="#EBEFF4" transform="translate(49,116)"/>
<path d="M0 0 C1.32 0.66 2.64 1.32 4 2 C3.67 4.31 3.34 6.62 3 9 C1.68 9 0.36 9 -1 9 C-2 8 -2 8 -2.1875 5.0625 C-2 2 -2 2 0 0 Z " fill="#DC9846" transform="translate(51,66)"/>
<path d="M0 0 C4.29 0.33 8.58 0.66 13 1 C13 1.66 13 2.32 13 3 C14.65 3 16.3 3 18 3 C14.28838251 5.47441166 11.30426299 5.67548653 7 5 C4.42581741 3.88710151 2.34969419 2.56646279 0 1 C0 0.67 0 0.34 0 0 Z " fill="#05264F" transform="translate(29,71)"/>
<path d="M0 0 C1.2065625 0.0309375 1.2065625 0.0309375 2.4375 0.0625 C2.4375 2.3725 2.4375 4.6825 2.4375 7.0625 C0.78135343 7.44468767 -0.88707024 7.77645102 -2.5625 8.0625 C-3.5625 7.0625 -3.5625 7.0625 -3.6875 4.0625 C-3.52180824 0.08589776 -3.52180824 0.08589776 0 0 Z " fill="#EFF2F5" transform="translate(55.5625,115.9375)"/>
<path d="M0 0 C2.375 0.4375 2.375 0.4375 5 2 C5.71903061 4.25413889 6.07913243 6.47560198 6.46484375 8.80859375 C7.18235325 11.7467166 8.71746587 13.09788823 11 15 C11 15.66 11 16.32 11 17 C10.34 17 9.68 17 9 17 C9 16.34 9 15.68 9 15 C8.38640625 14.75507812 7.7728125 14.51015625 7.140625 14.2578125 C4.57364433 12.74947715 3.96142096 11.55743212 2.75 8.875 C2.24726562 7.78832031 2.24726562 7.78832031 1.734375 6.6796875 C1.37085938 5.84824219 1.37085938 5.84824219 1 5 C0.67 5 0.34 5 0 5 C0 3.35 0 1.7 0 0 Z " fill="#5168C3" transform="translate(48,78)"/>
<path d="M0 0 C0.99 0 1.98 0 3 0 C2.67 3.3 2.34 6.6 2 10 C0.68 10.33 -0.64 10.66 -2 11 C-2.25 3.375 -2.25 3.375 0 0 Z " fill="#213751" transform="translate(27,54)"/>
<path d="M0 0 C1.32 0.33 2.64 0.66 4 1 C4 5.62 4 10.24 4 15 C3.67 15 3.34 15 3 15 C2.67 13.02 2.34 11.04 2 9 C1.34 9 0.68 9 0 9 C0 6.03 0 3.06 0 0 Z " fill="#394D66" transform="translate(32,112)"/>
<path d="M0 0 C-0.64505596 3.48330216 -1.98217268 6.09432866 -4 9 C-4.66 9 -5.32 9 -6 9 C-7.4606285 6.35261084 -8 5.10551666 -8 2 C-5.09399739 0.74335022 -3.20395416 0 0 0 Z " fill="#3269B3" transform="translate(57,48)"/>
<path d="M0 0 C3.96 1.98 3.96 1.98 8 4 C6.35 5.98 4.7 7.96 3 10 C-0.00617269 6.99382731 0.40414684 4.17618402 0 0 Z " fill="#3068B1" transform="translate(29,72)"/>
<path d="M0 0 C0.04254356 1.99954746 0.04080783 4.00041636 0 6 C-1 7 -1 7 -3.5625 7.0625 C-4.7690625 7.0315625 -4.7690625 7.0315625 -6 7 C-6 5.35 -6 3.7 -6 2 C-2.25 0 -2.25 0 0 0 Z " fill="#E7ECF2" transform="translate(75,39)"/>
<path d="M0 0 C0 0.33 0 0.66 0 1 C-0.66386719 1.02578125 -1.32773438 1.0515625 -2.01171875 1.078125 C-7.54441741 1.43351002 -10.96566075 1.83118278 -15 6 C-16.32 5.34 -17.64 4.68 -19 4 C-17.68 3.67 -16.36 3.34 -15 3 C-15 2.34 -15 1.68 -15 1 C-10.05183286 -1.80396138 -5.38317715 -0.77350507 0 0 Z " fill="#052D62" transform="translate(68,44)"/>
<path d="M0 0 C0.33 0 0.66 0 1 0 C1.66 2.64 2.32 5.28 3 8 C-0.4352048 10.29013653 -1.985331 10.17842973 -6 10 C-6.33 9.34 -6.66 8.68 -7 8 C-5.02 7.34 -3.04 6.68 -1 6 C-0.67 4.02 -0.34 2.04 0 0 Z " fill="#283F56" transform="translate(58,117)"/>
<path d="M0 0 C0.99 0 1.98 0 3 0 C3 3.63 3 7.26 3 11 C2.34 11 1.68 11 1 11 C-0.28317892 7.15046324 -0.06643637 4.05261865 0 0 Z " fill="#092540" transform="translate(23,113)"/>
<path d="M0 0 C4.95 0.33 9.9 0.66 15 1 C14.67 1.99 14.34 2.98 14 4 C8.34605369 4.34615998 4.96993194 3.43425238 0 1 C0 0.67 0 0.34 0 0 Z " fill="#062751" transform="translate(48,96)"/>
<path d="M0 0 C0.99 0.33 1.98 0.66 3 1 C2.67 1.33 2.34 1.66 2 2 C5.3 1.34 8.6 0.68 12 0 C11.67 1.32 11.34 2.64 11 4 C10.67 3.67 10.34 3.34 10 3 C9.2265625 3.2165625 9.2265625 3.2165625 8.4375 3.4375 C4.85447784 4.26435127 1.6838741 4.17542258 -2 4 C-2.99 3.34 -3.98 2.68 -5 2 C-3.35 2 -1.7 2 0 2 C0 1.34 0 0.68 0 0 Z " fill="#1E3369" transform="translate(63,72)"/>
<path d="M0 0 C3.465 1.485 3.465 1.485 7 3 C7 3.66 7 4.32 7 5 C6.34 5 5.68 5 5 5 C5 8.63 5 12.26 5 16 C4.67 16 4.34 16 4 16 C3.67 11.71 3.34 7.42 3 3 C2.01 3 1.02 3 0 3 C0 2.01 0 1.02 0 0 Z " fill="#35455F" transform="translate(73,32)"/>
<path d="M0 0 C2.13093906 1.06546953 3.36587557 2.29159719 5 4 C4.67 4.99 4.34 5.98 4 7 C1.69 6.01 -0.62 5.02 -3 4 C-2.67 3.01 -2.34 2.02 -2 1 C-1.34 0.67 -0.68 0.34 0 0 Z " fill="#223650" transform="translate(27,33)"/>
<path d="M0 0 C4.29 0 8.58 0 13 0 C12.01 1.485 12.01 1.485 11 3 C8.5 3.3125 8.5 3.3125 6 3 C5.34 2.34 4.68 1.68 4 1 C4 1.66 4 2.32 4 3 C2.68 3 1.36 3 0 3 C0 2.01 0 1.02 0 0 Z " fill="#0C2140" transform="translate(9,107)"/>
<path d="M0 0 C1.41777182 0.08785338 2.83429039 0.19604647 4.25 0.3125 C5.43335938 0.39951172 5.43335938 0.39951172 6.640625 0.48828125 C9.39184062 1.0849853 10.88035957 2.18663789 13 4 C11.39482903 3.91266424 9.79078338 3.80447776 8.1875 3.6875 C6.84751953 3.60048828 6.84751953 3.60048828 5.48046875 3.51171875 C2.69396 2.93686419 1.75864246 2.1793144 0 0 Z " fill="#1E3551" transform="translate(42,96)"/>
<path d="M0 0 C0.66 0.33 1.32 0.66 2 1 C2 3.64 2 6.28 2 9 C1.01 8.67 0.02 8.34 -1 8 C-1.33 5.69 -1.66 3.38 -2 1 C-1.34 0.67 -0.68 0.34 0 0 Z " fill="#102641" transform="translate(60,115)"/>
<path d="M0 0 C1.98 0.495 1.98 0.495 4 1 C4.66 3.64 5.32 6.28 6 9 C0.125 4.375 0.125 4.375 -1 1 C-0.67 0.67 -0.34 0.34 0 0 Z " fill="#3268B6" transform="translate(33,82)"/>
<path d="M0 0 C1.32 0.66 2.64 1.32 4 2 C3.67 2.99 3.34 3.98 3 5 C2.34 4.67 1.68 4.34 1 4 C1 4.99 1 5.98 1 7 C-0.32 6.67 -1.64 6.34 -3 6 C-2 3 -2 3 0 1 C0 0.67 0 0.34 0 0 Z " fill="#0E2747" transform="translate(63,59)"/>
<path d="M0 0 C0 2.31 0 4.62 0 7 C-1.65 6.67 -3.3 6.34 -5 6 C-2.84615385 0 -2.84615385 0 0 0 Z " fill="#192E4B" transform="translate(35,120)"/>
<path d="M0 0 C-0.33 0.99 -0.66 1.98 -1 3 C-2.98 3.33 -4.96 3.66 -7 4 C-7 3.01 -7 2.02 -7 1 C-3.375 -1.125 -3.375 -1.125 0 0 Z " fill="#1F2F41" transform="translate(89,129)"/>
<path d="M0 0 C0.66 0.99 1.32 1.98 2 3 C1.125 6.1875 1.125 6.1875 0 9 C-0.66 9 -1.32 9 -2 9 C-1.125 1.125 -1.125 1.125 0 0 Z " fill="#0F254F" transform="translate(75,75)"/>
<path d="M0 0 C0.28875 0.61875 0.5775 1.2375 0.875 1.875 C1.93720042 4.13325765 1.93720042 4.13325765 4 6 C3.38125 6.103125 2.7625 6.20625 2.125 6.3125 C-0.36526484 6.87525373 -0.36526484 6.87525373 -2 10 C-2.66 8.68 -3.32 7.36 -4 6 C-2.68 5.67 -1.36 5.34 0 5 C0 3.35 0 1.7 0 0 Z " fill="#E4EBEE" transform="translate(35,61)"/>
<path d="M0 0 C2.475 0.99 2.475 0.99 5 2 C5 3.65 5 5.3 5 7 C4.01 7 3.02 7 2 7 C0 5 0 5 -0.125 2.375 C-0.08375 1.59125 -0.0425 0.8075 0 0 Z " fill="#4E63B8" transform="translate(48,78)"/>
<path d="M0 0 C1.65 0 3.3 0 5 0 C5 0.66 5 1.32 5 2 C6.65 2 8.3 2 10 2 C6.91111478 4.05925681 6.29064073 4.2390374 2.8125 4.125 C0.9253125 4.063125 0.9253125 4.063125 -1 4 C0.32 3.67 1.64 3.34 3 3 C3 2.34 3 1.68 3 1 C2.01 0.67 1.02 0.34 0 0 Z " fill="#123A66" transform="translate(37,72)"/>
<path d="M0 0 C0.33 0.99 0.66 1.98 1 3 C-1.97 3.66 -4.94 4.32 -8 5 C-8.33 4.34 -8.66 3.68 -9 3 C-6.03 2.01 -3.06 1.02 0 0 Z " fill="#0A2248" transform="translate(73,70)"/>
<path d="M0 0 C1.64826111 2.96687001 2.44271087 5.65626525 3 9 C2.01 9.495 2.01 9.495 1 10 C-0.60725635 6.78548731 -0.05748185 3.56387464 0 0 Z M3 0 C3.33 1.32 3.66 2.64 4 4 C3.34 3.67 2.68 3.34 2 3 C2.33 2.01 2.66 1.02 3 0 Z " fill="#30435E" transform="translate(39,116)"/>
<path d="M0 0 C1.64666203 0.1135629 3.29236082 0.24117381 4.9375 0.375 C5.85402344 0.44460937 6.77054688 0.51421875 7.71484375 0.5859375 C8.84599609 0.79089844 8.84599609 0.79089844 10 1 C10.33 1.66 10.66 2.32 11 3 C3.43365385 3.37211538 3.43365385 3.37211538 1.23828125 1.48828125 C0.82964844 0.99714844 0.42101563 0.50601563 0 0 Z " fill="#052344" transform="translate(32,48)"/>
<path d="M0 0 C1.32 0 2.64 0 4 0 C3.67 1.65 3.34 3.3 3 5 C1.68 5 0.36 5 -1 5 C-0.67 3.35 -0.34 1.7 0 0 Z " fill="#49576A" transform="translate(92,112)"/>
<path d="M0 0 C0.33 0.66 0.66 1.32 1 2 C1.66 2 2.32 2 3 2 C1.7191375 5.64553172 0.83328987 7.16671013 -2 10 C-1.34 6.7 -0.68 3.4 0 0 Z " fill="#233352" transform="translate(72,82)"/>
<path d="M0 0 C0.66 0 1.32 0 2 0 C3.4783226 2.95664519 3.06032783 5.74229737 3 9 C2.71125 8.360625 2.4225 7.72125 2.125 7.0625 C1.17176549 4.84793921 1.17176549 4.84793921 -1 4 C-0.67 2.68 -0.34 1.36 0 0 Z " fill="#42506B" transform="translate(76,56)"/>
<path d="M0 0 C0.66 0.33 1.32 0.66 2 1 C1.34 2.65 0.68 4.3 0 6 C-0.99 5.67 -1.98 5.34 -3 5 C-3 5.99 -3 6.98 -3 8 C-3.66 8 -4.32 8 -5 8 C-3.8141763 4.62496331 -2.72426311 2.35277269 0 0 Z " fill="#062E5E" transform="translate(58,49)"/>
<path d="M0 0 C0 1.32 0 2.64 0 4 C-2.97 3.505 -2.97 3.505 -6 3 C-6 2.34 -6 1.68 -6 1 C-3 0 -3 0 0 0 Z " fill="#444F65" transform="translate(74,112)"/>
<path d="M0 0 C0.928125 1.175625 0.928125 1.175625 1.875 2.375 C3.89858661 4.96837647 3.89858661 4.96837647 6 7 C1.25 6.125 1.25 6.125 -1 5 C-0.67 3.35 -0.34 1.7 0 0 Z " fill="#1E3753" transform="translate(29,65)"/>
<path d="M0 0 C0.33 0.66 0.66 1.32 1 2 C1.99 2.33 2.98 2.66 4 3 C3.01 3.66 2.02 4.32 1 5 C-0.19232613 7.05003955 -0.19232613 7.05003955 -1 9 C-1.80967438 6.08517222 -2.21845993 4.53886783 -1.0625 1.6875 C-0.711875 1.130625 -0.36125 0.57375 0 0 Z " fill="#373A39" transform="translate(49,63)"/>
</svg>
